<svg width="1200" height="630" viewBox="0 0 1200 630" xmlns="http://www.w3.org/2000/svg"><defs><pattern id="satori_pattern_id_0" x="0" y="0" width="1" height="1" patternUnits="objectBoundingBox"><linearGradient id="satori_biid_0" x1="0" y1="0" x2="0" y2="1" spreadMethod="pad"><stop offset="0%" stop-color="#000"/><stop offset="100%" stop-color=""/></linearGradient><rect x="0" y="0" width="1200" height="630" fill="url(#satori_biid_0)"/></pattern></defs><mask id="satori_om-id"><rect x="0" y="0" width="1200" height="630" fill="#fff"/></mask><rect x="0" y="0" width="1200" height="630" fill="url(#satori_pattern_id_0)"/><clipPath id="satori_bct-id-0"><path d="M446.7 227.9L422.9 185.5L438.4 185.5L453.3 213.7L453.9 213.7L468.8 185.5L484.3 185.5L460.5 227.9L460.5 251L446.7 251L446.7 227.9ZM500.6 252.0L500.6 252.0Q493.2 252.0 487.8 248.8Q482.3 245.6 479.4 239.9Q476.5 234.2 476.5 226.6L476.5 226.6Q476.5 219.0 479.4 213.3Q482.3 207.6 487.8 204.4Q493.2 201.3 500.6 201.3L500.6 201.3Q508.1 201.3 513.5 204.4Q518.9 207.6 521.8 213.3Q524.8 219.0 524.8 226.6L524.8 226.6Q524.8 234.2 521.8 239.9Q518.9 245.6 513.5 248.8Q508.1 252.0 500.6 252.0ZM500.7 241.4L500.7 241.4Q504.1 241.4 506.3 239.5Q508.6 237.5 509.8 234.2Q510.9 230.8 510.9 226.6L510.9 226.6Q510.9 222.3 509.8 218.9Q508.6 215.6 506.3 213.6Q504.1 211.7 500.7 211.7L500.7 211.7Q497.3 211.7 494.9 213.6Q492.6 215.6 491.5 218.9Q490.3 222.3 490.3 226.6L490.3 226.6Q490.3 230.8 491.5 234.2Q492.6 237.5 494.9 239.5Q497.3 241.4 500.7 241.4ZM562.1 230.1L562.1 230.1L562.1 201.9L575.8 201.9L575.8 251L562.7 251L562.7 242.1L562.2 242.1Q560.5 246.4 556.7 249.0Q552.8 251.6 547.3 251.6L547.3 251.6Q542.4 251.6 538.6 249.4Q534.9 247.2 532.8 243.0Q530.7 238.9 530.7 233.2L530.7 233.2L530.7 201.9L544.3 201.9L544.3 230.7Q544.3 235.1 546.6 237.6Q548.9 240.1 552.8 240.1L552.8 240.1Q555.2 240.1 557.4 239.0Q559.5 237.9 560.9 235.6Q562.2 233.4 562.1 230.1ZM580.2 201.9L609.7 201.9L609.7 212.1L580.2 212.1L580.2 201.9ZM586.9 237.7L586.9 190.1L600.5 190.1L600.5 235.9Q600.5 237.8 601.1 238.8Q601.7 239.9 602.7 240.3Q603.7 240.7 605.1 240.7L605.1 240.7Q606.1 240.7 607.0 240.5Q608.0 240.4 608.5 240.3L608.5 240.3L610.6 250.4Q609.6 250.7 607.8 251.1Q605.9 251.6 603.3 251.7L603.3 251.7Q598.3 251.9 594.6 250.4Q590.9 248.9 588.9 245.7Q586.9 242.5 586.9 237.7L586.9 237.7ZM647.1 230.1L647.1 230.1L647.1 201.9L660.7 201.9L660.7 251L647.6 251L647.6 242.1L647.1 242.1Q645.4 246.4 641.6 249.0Q637.7 251.6 632.2 251.6L632.2 251.6Q627.3 251.6 623.5 249.4Q619.8 247.2 617.7 243.0Q615.6 238.9 615.6 233.2L615.6 233.2L615.6 201.9L629.2 201.9L629.2 230.7Q629.2 235.1 631.5 237.6Q633.8 240.1 637.7 240.1L637.7 240.1Q640.2 240.1 642.3 239.0Q644.5 237.9 645.8 235.6Q647.1 233.4 647.1 230.1ZM682.2 251L668.8 251L668.8 185.5L682.4 185.5L682.4 210.2L682.8 210.2Q683.7 208.2 685.4 206.1Q687.2 204.1 689.9 202.7Q692.7 201.3 696.8 201.3L696.8 201.3Q702.2 201.3 706.7 204.1Q711.3 206.9 714.0 212.5Q716.7 218.1 716.7 226.5L716.7 226.5Q716.7 234.7 714.0 240.4Q711.4 246.0 706.9 248.9Q702.4 251.8 696.8 251.8L696.8 251.8Q692.8 251.8 690.0 250.5Q687.3 249.2 685.5 247.2Q683.8 245.2 682.8 243.1L682.8 243.1L682.2 243.1L682.2 251ZM682.1 226.5L682.1 226.5Q682.1 230.8 683.4 234.1Q684.6 237.4 686.9 239.2Q689.2 241.0 692.5 241.0L692.5 241.0Q695.8 241.0 698.1 239.1Q700.4 237.3 701.6 234.0Q702.8 230.7 702.8 226.5L702.8 226.5Q702.8 222.2 701.6 219.0Q700.4 215.7 698.1 213.9Q695.8 212.1 692.5 212.1L692.5 212.1Q689.1 212.1 686.9 213.9Q684.6 215.6 683.4 218.8Q682.1 222.1 682.1 226.5ZM745.1 252.0L745.1 252.0Q737.5 252.0 732.1 248.9Q726.6 245.8 723.7 240.1Q720.7 234.4 720.7 226.7L720.7 226.7Q720.7 219.1 723.7 213.4Q726.6 207.7 732.0 204.5Q737.3 201.3 744.6 201.3L744.6 201.3Q749.4 201.3 753.6 202.8Q757.8 204.4 761.0 207.5Q764.1 210.6 765.9 215.3Q767.6 219.9 767.6 226.2L767.6 226.2L767.6 229.9L726.2 229.9L726.2 221.5L754.8 221.5Q754.8 218.6 753.5 216.3Q752.3 214.0 750.0 212.7Q747.8 211.4 744.8 211.4L744.8 211.4Q741.7 211.4 739.3 212.9Q736.9 214.3 735.6 216.7Q734.2 219.0 734.2 221.9L734.2 221.9L734.2 230.0Q734.2 233.6 735.6 236.3Q736.9 238.9 739.4 240.4Q741.9 241.8 745.3 241.8L745.3 241.8Q747.6 241.8 749.5 241.2Q751.4 240.5 752.7 239.2Q754.1 238.0 754.8 236.1L754.8 236.1L767.3 236.9Q766.4 241.5 763.4 244.8Q760.5 248.2 755.8 250.1Q751.2 252.0 745.1 252.0Z "/></clipPath><defs><pattern id="satori_pattern_id-0_0" x="0" y="0" width="1" height="1" patternUnits="objectBoundingBox"><linearGradient id="satori_biid-0_0" x1="0" y1="0" x2="1" y2="0" spreadMethod="pad"><stop offset="0%" stop-color="#72D3FF"/><stop offset="100%" stop-color="#64CDFF"/></linearGradient><rect x="0" y="0" width="358" height="109" fill="url(#satori_biid-0_0)"/></pattern></defs><mask id="satori_om-id-0"><rect x="421" y="164" width="358" height="109" fill="#fff"/></mask><rect x="421" y="164" width="358" height="109" fill="url(#satori_pattern_id-0_0)" clip-path="url(#satori_bct-id-0)"/><clipPath id="satori_bct-id-1"><path d="M419.5 313.4L406.2 313.4Q405.8 309.5 402.9 307.4Q400.0 305.2 395.0 305.2L395.0 305.2Q391.6 305.2 389.3 306.2Q387.0 307.1 385.7 308.8Q384.5 310.4 384.5 312.5L384.5 312.5Q384.4 314.3 385.2 315.6Q386.1 316.9 387.5 317.9Q388.9 318.8 390.8 319.5Q392.7 320.2 394.9 320.7L394.9 320.7L400.7 322.1Q405.0 323.0 408.6 324.6Q412.2 326.2 414.8 328.6Q417.4 330.9 418.9 334.0Q420.3 337.2 420.4 341.3L420.4 341.3Q420.3 347.3 417.3 351.7Q414.3 356.1 408.6 358.5Q402.9 360.9 394.9 360.9L394.9 360.9Q387.0 360.9 381.2 358.5Q375.3 356.1 372.0 351.3Q368.7 346.5 368.6 339.4L368.6 339.4L382.0 339.4Q382.2 342.7 383.9 344.9Q385.6 347.1 388.4 348.2Q391.2 349.3 394.8 349.3L394.8 349.3Q398.3 349.3 400.9 348.3Q403.5 347.3 405.0 345.5Q406.4 343.6 406.4 341.3L406.4 341.3Q406.4 339.1 405.1 337.6Q403.8 336.1 401.3 335.0Q398.8 334.0 395.3 333.1L395.3 333.1L388.1 331.3Q379.9 329.3 375.1 325.0Q370.3 320.7 370.3 313.5L370.3 313.5Q370.3 307.5 373.5 303.1Q376.7 298.6 382.3 296.1Q387.9 293.7 395.1 293.7L395.1 293.7Q402.4 293.7 407.8 296.1Q413.3 298.6 416.3 303.1Q419.4 307.5 419.5 313.4L419.5 313.4ZM457.8 339.1L457.8 339.1L457.8 310.9L471.5 310.9L471.5 360L458.4 360L458.4 351.1L457.9 351.1Q456.2 355.4 452.4 358.0Q448.5 360.6 443.0 360.6L443.0 360.6Q438.1 360.6 434.3 358.4Q430.6 356.2 428.5 352.0Q426.4 347.9 426.4 342.2L426.4 342.2L426.4 310.9L440.0 310.9L440.0 339.7Q440.0 344.1 442.3 346.6Q444.6 349.1 448.5 349.1L448.5 349.1Q450.9 349.1 453.1 348.0Q455.2 346.9 456.6 344.6Q457.9 342.4 457.8 339.1ZM492.9 360L479.3 360L479.3 310.9L492.3 310.9L492.3 319.6L492.9 319.6Q494.4 315.3 498.0 312.8Q501.6 310.3 506.6 310.3L506.6 310.3Q511.6 310.3 515.2 312.8Q518.7 315.3 519.9 319.6L519.9 319.6L520.4 319.6Q521.9 315.4 525.8 312.8Q529.8 310.3 535.2 310.3L535.2 310.3Q542.1 310.3 546.4 314.6Q550.7 319.0 550.7 327.0L550.7 327.0L550.7 360L537.1 360L537.1 329.7Q537.1 325.6 534.9 323.5Q532.7 321.5 529.5 321.5L529.5 321.5Q525.8 321.5 523.7 323.8Q521.6 326.2 521.6 330.0L521.6 330.0L521.6 360L508.4 360L508.4 329.4Q508.4 325.8 506.4 323.6Q504.3 321.5 500.9 321.5L500.9 321.5Q498.7 321.5 496.9 322.6Q495.1 323.8 494.0 325.8Q492.9 327.8 492.9 330.5L492.9 330.5L492.9 360ZM572.0 360L558.4 360L558.4 310.9L571.4 310.9L571.4 319.6L572.0 319.6Q573.5 315.3 577.1 312.8Q580.6 310.3 585.6 310.3L585.6 310.3Q590.7 310.3 594.2 312.8Q597.8 315.3 599.0 319.6L599.0 319.6L599.5 319.6Q601.0 315.4 604.9 312.8Q608.9 310.3 614.3 310.3L614.3 310.3Q621.1 310.3 625.4 314.6Q629.7 319.0 629.7 327.0L629.7 327.0L629.7 360L616.2 360L616.2 329.7Q616.2 325.6 614.0 323.5Q611.8 321.5 608.5 321.5L608.5 321.5Q604.8 321.5 602.8 323.8Q600.7 326.2 600.7 330.0L600.7 330.0L600.7 360L587.5 360L587.5 329.4Q587.5 325.8 585.4 323.6Q583.4 321.5 580.0 321.5L580.0 321.5Q577.7 321.5 575.9 322.6Q574.1 323.8 573.1 325.8Q572.0 327.8 572.0 330.5L572.0 330.5L572.0 360ZM651.5 360.9L651.5 360.9Q646.8 360.9 643.1 359.3Q639.4 357.6 637.3 354.4Q635.2 351.1 635.2 346.3L635.2 346.3Q635.2 342.2 636.7 339.4Q638.2 336.6 640.8 334.9Q643.4 333.2 646.7 332.4Q650.0 331.5 653.6 331.2L653.6 331.2Q657.9 330.7 660.5 330.3Q663.1 329.9 664.3 329.1Q665.5 328.3 665.5 326.8L665.5 326.8L665.5 326.6Q665.5 323.5 663.6 321.9Q661.7 320.2 658.2 320.2L658.2 320.2Q654.5 320.2 652.4 321.8Q650.2 323.4 649.5 325.9L649.5 325.9L636.9 324.8Q637.9 320.4 640.7 317.1Q643.5 313.8 647.9 312.0Q652.4 310.3 658.3 310.3L658.3 310.3Q662.4 310.3 666.1 311.2Q669.9 312.2 672.8 314.2Q675.7 316.2 677.4 319.4Q679.1 322.5 679.1 326.9L679.1 326.9L679.1 360L666.2 360L666.2 353.2L665.8 353.2Q664.6 355.5 662.7 357.2Q660.7 359.0 657.9 360.0Q655.1 360.9 651.5 360.9ZM655.4 351.5L655.4 351.5Q658.4 351.5 660.7 350.3Q663.0 349.1 664.3 347.1Q665.6 345.0 665.6 342.5L665.6 342.5L665.6 337.2Q665.0 337.7 663.9 338.0Q662.8 338.3 661.4 338.6Q660.0 338.9 658.6 339.1Q657.3 339.3 656.1 339.4L656.1 339.4Q653.7 339.8 652.0 340.6Q650.2 341.3 649.2 342.6Q648.2 343.9 648.2 345.8L648.2 345.8Q648.2 348.6 650.2 350.1Q652.2 351.5 655.4 351.5ZM700.3 360L686.7 360L686.7 310.9L699.9 310.9L699.9 319.5L700.4 319.5Q701.8 314.9 704.9 312.6Q708.1 310.2 712.2 310.2L712.2 310.2Q713.2 310.2 714.4 310.3Q715.6 310.5 716.5 310.7L716.5 310.7L716.5 322.8Q715.5 322.5 713.8 322.3Q712.1 322.0 710.7 322.0L710.7 322.0Q707.7 322.0 705.4 323.3Q703.0 324.6 701.7 326.9Q700.3 329.2 700.3 332.2L700.3 332.2L700.3 360ZM734.1 360L720.5 360L720.5 310.9L734.1 310.9L734.1 360ZM727.3 304.6L727.3 304.6Q724.3 304.6 722.1 302.6Q720.0 300.5 720.0 297.7L720.0 297.7Q720.0 294.9 722.1 292.8Q724.3 290.8 727.3 290.8L727.3 290.8Q730.4 290.8 732.5 292.8Q734.7 294.9 734.7 297.7L734.7 297.7Q734.7 300.5 732.5 302.6Q730.4 304.6 727.3 304.6ZM764.3 361.0L764.3 361.0Q756.8 361.0 751.3 357.9Q745.9 354.8 742.9 349.1Q740.0 343.4 740.0 335.7L740.0 335.7Q740.0 328.1 742.9 322.4Q745.9 316.7 751.2 313.5Q756.6 310.3 763.8 310.3L763.8 310.3Q768.7 310.3 772.9 311.8Q777.1 313.4 780.2 316.5Q783.4 319.6 785.1 324.3Q786.9 328.9 786.9 335.2L786.9 335.2L786.9 338.9L745.4 338.9L745.4 330.5L774.1 330.5Q774.1 327.6 772.8 325.3Q771.5 323.0 769.2 321.7Q767.0 320.4 764.0 320.4L764.0 320.4Q760.9 320.4 758.5 321.9Q756.2 323.3 754.8 325.7Q753.5 328.0 753.4 330.9L753.4 330.9L753.4 339.0Q753.4 342.6 754.8 345.3Q756.2 347.9 758.7 349.4Q761.1 350.8 764.6 350.8L764.6 350.8Q766.8 350.8 768.7 350.2Q770.6 349.5 771.9 348.2Q773.3 347.0 774.0 345.1L774.0 345.1L786.6 345.9Q785.6 350.5 782.7 353.8Q779.7 357.2 775.1 359.1Q770.4 361.0 764.3 361.0ZM833.6 324.9L833.6 324.9L821.1 325.7Q820.8 324.1 819.8 322.8Q818.7 321.5 817.0 320.7Q815.3 319.9 812.9 319.9L812.9 319.9Q809.8 319.9 807.6 321.2Q805.4 322.6 805.4 324.8L805.4 324.8Q805.4 326.5 806.8 327.8Q808.2 329.0 811.6 329.7L811.6 329.7L820.5 331.5Q827.7 333.0 831.2 336.2Q834.7 339.5 834.7 344.8L834.7 344.8Q834.7 349.6 831.9 353.3Q829.1 356.9 824.2 358.9Q819.3 361.0 812.9 361.0L812.9 361.0Q803.1 361.0 797.3 356.9Q791.6 352.8 790.6 345.8L790.6 345.8L804.0 345.1Q804.6 348.0 806.9 349.6Q809.2 351.1 812.9 351.1L812.9 351.1Q816.5 351.1 818.7 349.8Q820.9 348.4 820.9 346.2L820.9 346.2Q820.9 344.3 819.3 343.1Q817.8 341.9 814.6 341.3L814.6 341.3L806.1 339.6Q798.9 338.1 795.4 334.6Q791.9 331.0 791.9 325.5L791.9 325.5Q791.9 320.8 794.5 317.4Q797.0 314.0 801.7 312.1Q806.4 310.3 812.7 310.3L812.7 310.3Q822.0 310.3 827.4 314.2Q832.7 318.1 833.6 324.9Z "/></clipPath><defs><pattern id="satori_pattern_id-1_0" x="0" y="0" width="1" height="1" patternUnits="objectBoundingBox"><linearGradient id="satori_biid-1_0" x1="0" y1="0" x2="1" y2="0" spreadMethod="pad"><stop offset="0%" stop-color="#64CDFF"/><stop offset="100%" stop-color="#00ACE7"/></linearGradient><rect x="0" y="0" width="470" height="109" fill="url(#satori_biid-1_0)"/></pattern></defs><mask id="satori_om-id-1"><rect x="365" y="273" width="470" height="109" fill="#fff"/></mask><rect x="365" y="273" width="470" height="109" fill="url(#satori_pattern_id-1_0)" clip-path="url(#satori_bct-id-1)"/><clipPath id="satori_bct-id-2"/><defs><pattern id="satori_pattern_id-2_0" x="NaN" y="NaN" width="NaN" height="NaN" patternUnits="objectBoundingBox"><linearGradient id="satori_biid-2_0" x1="NaN" y1="NaN" x2="NaN" y2="NaN" spreadMethod="pad"><stop offset="0%" stop-color="#00ACE7"/><stop offset="100%" stop-color="#0099CC"/></linearGradient><rect x="0" y="0" width="0" height="0" fill="url(#satori_biid-2_0)"/></pattern></defs><mask id="satori_om-id-2"><rect x="600" y="382" width="0" height="0" fill="#fff"/></mask><rect x="600" y="382" width="0" height="0" fill="url(#satori_pattern_id-2_0)" clip-path="url(#satori_bct-id-2)"/><mask id="satori_om-id-3"><rect x="414" y="422" width="372" height="44" fill="#fff"/></mask><g  ><path fill="#00ACE7" d="M433.3 464.5L433.3 464.5Q429.2 464.5 426.1 463.4Q422.9 462.3 420.7 460.2Q418.5 458.1 417.3 455.0Q416.2 451.9 416.2 448.0L416.2 448.0Q416.2 444.2 417.3 441.0Q418.5 437.9 420.7 435.6Q422.9 433.4 426.2 432.1Q429.4 430.9 433.5 430.9L433.5 430.9Q437.3 430.9 440.3 432.0Q443.3 433.2 445.4 435.2Q447.5 437.3 448.6 440.1Q449.7 442.9 449.6 446.3L449.6 446.3Q449.7 448.7 449.2 450.6Q448.8 452.6 447.9 454.1Q447.0 455.5 445.6 456.4Q444.1 457.2 442.0 457.3L442.0 457.3Q440.5 457.5 439.6 457.1Q438.7 456.8 438.2 456.1Q437.7 455.5 437.6 454.6L437.6 454.6L437.4 454.6Q437.1 455.4 436.2 456.0Q435.3 456.6 434.1 456.9Q432.8 457.3 431.3 457.2L431.3 457.2Q429.8 457.1 428.5 456.5Q427.1 455.9 426.1 454.7Q425.0 453.5 424.5 451.8Q423.9 450.1 423.8 447.9L423.8 447.9Q423.9 445.6 424.5 444.0Q425.1 442.3 426.1 441.2Q427.2 440.1 428.4 439.5Q429.7 438.8 431.0 438.6L431.0 438.6Q432.4 438.4 433.7 438.6Q435.0 438.9 435.9 439.3Q436.8 439.8 437.0 440.4L437.0 440.4L437.2 440.4L437.2 439.0L441.2 439.0L441.2 451.4Q441.2 452.3 441.6 452.8Q441.9 453.3 442.6 453.3L442.6 453.3Q443.5 453.3 444.1 452.5Q444.7 451.7 445.0 450.1Q445.3 448.5 445.3 446.0L445.3 446.0Q445.3 443.6 444.6 441.8Q444.0 440.0 442.9 438.7Q441.7 437.4 440.2 436.6Q438.8 435.8 437.0 435.4Q435.3 435.0 433.4 435.0L433.4 435.0Q430.2 435.0 427.9 436.0Q425.5 437.0 423.9 438.7Q422.3 440.5 421.5 442.8Q420.7 445.1 420.7 447.9L420.7 447.9Q420.7 450.9 421.6 453.2Q422.4 455.6 424.0 457.2Q425.7 458.7 428.1 459.6Q430.5 460.4 433.6 460.4L433.6 460.4Q435.1 460.4 436.5 460.2Q437.9 460.0 439.0 459.7Q440.2 459.4 440.9 459.1L440.9 459.1L442.1 462.8Q441.3 463.2 439.9 463.6Q438.6 464.0 436.9 464.3Q435.1 464.5 433.3 464.5ZM432.7 453.0L432.7 453.0Q434.3 453.0 435.2 452.4Q436.1 451.8 436.5 450.6Q436.9 449.4 436.9 447.7L436.9 447.7Q436.9 446.1 436.5 445.1Q436.2 444.0 435.2 443.5Q434.3 442.9 432.7 442.9L432.7 442.9Q431.3 442.9 430.3 443.5Q429.3 444.1 428.8 445.2Q428.3 446.3 428.3 447.7L428.3 447.7Q428.3 449.1 428.7 450.3Q429.1 451.5 430.1 452.2Q431.1 453.0 432.7 453.0ZM453.6 464.4L453.6 464.4Q452.6 464.4 451.7 464.2Q450.8 464.0 450.2 463.8L450.2 463.8L451.4 459.7Q452.4 460.0 453.2 460.1Q453.9 460.1 454.5 459.7Q455.1 459.3 455.4 458.4L455.4 458.4L455.8 457.6L448.7 437.4L454.4 437.4L458.5 451.8L458.7 451.8L462.8 437.4L468.6 437.4L460.9 459.1Q460.4 460.7 459.5 461.9Q458.5 463.1 457.1 463.7Q455.7 464.4 453.6 464.4ZM476.6 457.4L476.6 457.4Q473.6 457.4 471.4 456.1Q469.3 454.8 468.1 452.6Q466.9 450.3 466.9 447.3L466.9 447.3Q466.9 444.2 468.1 441.9Q469.3 439.7 471.4 438.4Q473.6 437.1 476.6 437.1L476.6 437.1Q479.6 437.1 481.7 438.4Q483.9 439.7 485.1 441.9Q486.3 444.2 486.3 447.3L486.3 447.3Q486.3 450.3 485.1 452.6Q483.9 454.8 481.7 456.1Q479.6 457.4 476.6 457.4ZM476.6 453.2L476.6 453.2Q478.0 453.2 478.9 452.4Q479.8 451.6 480.2 450.3Q480.7 448.9 480.7 447.2L480.7 447.2Q480.7 445.5 480.2 444.2Q479.8 442.8 478.9 442.0Q478.0 441.3 476.6 441.3L476.6 441.3Q475.2 441.3 474.3 442.0Q473.4 442.8 472.9 444.2Q472.5 445.5 472.5 447.2L472.5 447.2Q472.5 448.9 472.9 450.3Q473.4 451.6 474.3 452.4Q475.2 453.2 476.6 453.2ZM499.4 448.6L499.4 448.6L499.4 437.4L504.8 437.4L504.8 457L499.6 457L499.6 453.4L499.4 453.4Q498.7 455.2 497.2 456.2Q495.7 457.3 493.5 457.3L493.5 457.3Q491.5 457.3 490.0 456.4Q488.5 455.5 487.7 453.8Q486.8 452.2 486.8 449.9L486.8 449.9L486.8 437.4L492.3 437.4L492.3 448.9Q492.3 450.6 493.2 451.6Q494.1 452.7 495.7 452.7L495.7 452.7Q496.6 452.7 497.5 452.2Q498.3 451.7 498.9 450.9Q499.4 450.0 499.4 448.6ZM504.8 437.4L516.6 437.4L516.6 441.5L504.8 441.5L504.8 437.4ZM507.5 451.7L507.5 432.7L512.9 432.7L512.9 451.0Q512.9 451.7 513.2 452.1Q513.4 452.6 513.8 452.7Q514.2 452.9 514.8 452.9L514.8 452.9Q515.2 452.9 515.5 452.8Q515.9 452.7 516.1 452.7L516.1 452.7L517.0 456.8Q516.6 456.9 515.8 457.1Q515.1 457.2 514.0 457.3L514.0 457.3Q512.1 457.3 510.6 456.7Q509.1 456.1 508.3 454.9Q507.5 453.6 507.5 451.7L507.5 451.7ZM529.8 448.6L529.8 448.6L529.8 437.4L535.2 437.4L535.2 457L530.0 457L530.0 453.4L529.8 453.4Q529.1 455.2 527.6 456.2Q526.0 457.3 523.8 457.3L523.8 457.3Q521.9 457.3 520.4 456.4Q518.9 455.5 518.0 453.8Q517.2 452.2 517.2 449.9L517.2 449.9L517.2 437.4L522.6 437.4L522.6 448.9Q522.6 450.6 523.6 451.6Q524.5 452.7 526.0 452.7L526.0 452.7Q527.0 452.7 527.9 452.2Q528.7 451.7 529.3 450.9Q529.8 450.0 529.8 448.6ZM542.0 457L536.7 457L536.7 430.8L542.1 430.8L542.1 440.7L542.3 440.7Q542.6 439.9 543.3 439.0Q544.0 438.2 545.1 437.7Q546.2 437.1 547.9 437.1L547.9 437.1Q550.0 437.1 551.8 438.2Q553.6 439.3 554.7 441.6Q555.8 443.8 555.8 447.2L555.8 447.2Q555.8 450.5 554.8 452.7Q553.7 455.0 551.9 456.2Q550.1 457.3 547.8 457.3L547.8 457.3Q546.3 457.3 545.2 456.8Q544.1 456.3 543.3 455.5Q542.6 454.7 542.3 453.9L542.3 453.9L542.0 453.9L542.0 457ZM542.0 447.2L542.0 447.2Q542.0 448.9 542.5 450.2Q543.0 451.5 543.9 452.3Q544.8 453.0 546.1 453.0L546.1 453.0Q547.5 453.0 548.4 452.3Q549.3 451.5 549.8 450.2Q550.3 448.9 550.3 447.2L550.3 447.2Q550.3 445.5 549.8 444.2Q549.3 442.9 548.4 442.2Q547.5 441.4 546.1 441.4L546.1 441.4Q544.8 441.4 543.9 442.1Q543.0 442.8 542.5 444.1Q542.0 445.4 542.0 447.2ZM565.4 457.4L565.4 457.4Q562.4 457.4 560.2 456.1Q558.0 454.9 556.8 452.6Q555.6 450.4 555.6 447.3L555.6 447.3Q555.6 444.2 556.8 442.0Q558.0 439.7 560.1 438.4Q562.3 437.1 565.2 437.1L565.2 437.1Q567.1 437.1 568.8 437.7Q570.5 438.3 571.7 439.6Q573.0 440.8 573.7 442.7Q574.4 444.6 574.4 447.1L574.4 447.1L574.4 448.6L557.8 448.6L557.8 445.2L569.3 445.2Q569.3 444.0 568.8 443.1Q568.2 442.2 567.3 441.7Q566.4 441.2 565.3 441.2L565.3 441.2Q564.0 441.2 563.1 441.7Q562.1 442.3 561.6 443.3Q561.0 444.2 561.0 445.4L561.0 445.4L561.0 448.6Q561.0 450.0 561.6 451.1Q562.1 452.2 563.1 452.7Q564.1 453.3 565.5 453.3L565.5 453.3Q566.4 453.3 567.1 453.1Q567.9 452.8 568.4 452.3Q569.0 451.8 569.2 451.0L569.2 451.0L574.3 451.4Q573.9 453.2 572.7 454.5Q571.5 455.9 569.7 456.6Q567.8 457.4 565.4 457.4ZM591.3 443.0L591.3 443.0L586.3 443.3Q586.2 442.6 585.7 442.1Q585.3 441.6 584.6 441.3Q584.0 441.0 583.0 441.0L583.0 441.0Q581.7 441.0 580.9 441.5Q580.0 442.0 580.0 442.9L580.0 442.9Q580.0 443.6 580.6 444.1Q581.1 444.6 582.5 444.9L582.5 444.9L586.1 445.6Q588.9 446.2 590.3 447.5Q591.7 448.8 591.7 450.9L591.7 450.9Q591.7 452.8 590.6 454.3Q589.5 455.8 587.5 456.6Q585.5 457.4 583.0 457.4L583.0 457.4Q579.1 457.4 576.8 455.8Q574.5 454.1 574.1 451.3L574.1 451.3L579.4 451.0Q579.7 452.2 580.6 452.8Q581.5 453.5 583.0 453.5L583.0 453.5Q584.4 453.5 585.3 452.9Q586.2 452.3 586.2 451.5L586.2 451.5Q586.2 450.7 585.6 450.2Q585.0 449.8 583.7 449.5L583.7 449.5L580.3 448.8Q577.4 448.3 576.0 446.8Q574.6 445.4 574.6 443.2L574.6 443.2Q574.6 441.3 575.6 440.0Q576.7 438.6 578.5 437.8Q580.4 437.1 582.9 437.1L582.9 437.1Q586.6 437.1 588.8 438.7Q590.9 440.3 591.3 443.0ZM604.8 448.6L604.8 448.6L604.8 437.4L610.2 437.4L610.2 457L605.0 457L605.0 453.4L604.8 453.4Q604.1 455.2 602.6 456.2Q601.0 457.3 598.8 457.3L598.8 457.3Q596.9 457.3 595.4 456.4Q593.9 455.5 593.0 453.8Q592.2 452.2 592.2 449.9L592.2 449.9L592.2 437.4L597.6 437.4L597.6 448.9Q597.6 450.6 598.6 451.6Q599.5 452.7 601.0 452.7L601.0 452.7Q602.0 452.7 602.9 452.2Q603.7 451.7 604.2 450.9Q604.8 450.0 604.8 448.6ZM617.0 457L611.6 457L611.6 437.4L616.7 437.4L616.7 440.8L617.0 440.8Q617.6 439.1 619.0 438.1Q620.5 437.1 622.4 437.1L622.4 437.1Q624.5 437.1 625.9 438.1Q627.3 439.1 627.8 440.8L627.8 440.8L628.0 440.8Q628.6 439.1 630.2 438.1Q631.7 437.1 633.9 437.1L633.9 437.1Q636.7 437.1 638.4 438.9Q640.1 440.6 640.1 443.8L640.1 443.8L640.1 457L634.7 457L634.7 444.9Q634.7 443.2 633.8 442.4Q632.9 441.6 631.6 441.6L631.6 441.6Q630.1 441.6 629.3 442.5Q628.5 443.5 628.5 445.0L628.5 445.0L628.5 457L623.2 457L623.2 444.8Q623.2 443.3 622.4 442.5Q621.5 441.6 620.2 441.6L620.2 441.6Q619.3 441.6 618.6 442.0Q617.8 442.5 617.4 443.3Q617.0 444.1 617.0 445.2L617.0 445.2L617.0 457ZM646.8 457L641.4 457L641.4 437.4L646.6 437.4L646.6 440.8L646.8 440.8Q647.4 439.1 648.9 438.1Q650.3 437.1 652.3 437.1L652.3 437.1Q654.3 437.1 655.7 438.1Q657.1 439.1 657.6 440.8L657.6 440.8L657.8 440.8Q658.4 439.1 660.0 438.1Q661.6 437.1 663.7 437.1L663.7 437.1Q666.5 437.1 668.2 438.9Q669.9 440.6 669.9 443.8L669.9 443.8L669.9 457L664.5 457L664.5 444.9Q664.5 443.2 663.6 442.4Q662.7 441.6 661.4 441.6L661.4 441.6Q660.0 441.6 659.1 442.5Q658.3 443.5 658.3 445.0L658.3 445.0L658.3 457L653.0 457L653.0 444.8Q653.0 443.3 652.2 442.5Q651.4 441.6 650.0 441.6L650.0 441.6Q649.1 441.6 648.4 442.0Q647.7 442.5 647.3 443.3Q646.8 444.1 646.8 445.2L646.8 445.2L646.8 457ZM676.8 457.4L676.8 457.4Q674.9 457.4 673.5 456.7Q672.0 456.1 671.1 454.8Q670.3 453.5 670.3 451.5L670.3 451.5Q670.3 449.9 670.9 448.8Q671.5 447.7 672.5 447.0Q673.6 446.3 674.9 446.0Q676.2 445.6 677.7 445.5L677.7 445.5Q679.4 445.3 680.4 445.1Q681.5 445.0 682.0 444.7Q682.4 444.3 682.4 443.7L682.4 443.7L682.4 443.6Q682.4 442.4 681.7 441.7Q680.9 441.1 679.5 441.1L679.5 441.1Q678.0 441.1 677.2 441.7Q676.3 442.4 676.0 443.3L676.0 443.3L671.0 442.9Q671.4 441.1 672.5 439.8Q673.6 438.5 675.4 437.8Q677.2 437.1 679.5 437.1L679.5 437.1Q681.2 437.1 682.7 437.5Q684.2 437.9 685.3 438.7Q686.5 439.5 687.2 440.7Q687.9 442.0 687.9 443.8L687.9 443.8L687.9 457L682.7 457L682.7 454.3L682.6 454.3Q682.1 455.2 681.3 455.9Q680.5 456.6 679.4 457.0Q678.3 457.4 676.8 457.4ZM678.4 453.6L678.4 453.6Q679.6 453.6 680.5 453.1Q681.4 452.7 681.9 451.8Q682.5 451.0 682.5 450.0L682.5 450.0L682.5 447.9Q682.2 448.1 681.8 448.2Q681.3 448.3 680.8 448.4Q680.2 448.5 679.7 448.6Q679.1 448.7 678.7 448.8L678.7 448.8Q677.7 448.9 677.0 449.2Q676.3 449.5 675.9 450.1Q675.5 450.6 675.5 451.3L675.5 451.3Q675.5 452.4 676.3 453.0Q677.1 453.6 678.4 453.6ZM694.6 457L689.1 457L689.1 437.4L694.4 437.4L694.4 440.8L694.6 440.8Q695.1 439.0 696.4 438.0Q697.7 437.1 699.3 437.1L699.3 437.1Q699.7 437.1 700.2 437.1Q700.7 437.2 701.0 437.3L701.0 437.3L701.0 442.1Q700.6 442.0 700.0 441.9Q699.3 441.8 698.7 441.8L698.7 441.8Q697.5 441.8 696.6 442.3Q695.6 442.8 695.1 443.8Q694.6 444.7 694.6 445.9L694.6 445.9L694.6 457ZM706.3 457L700.8 457L700.8 437.4L706.3 437.4L706.3 457ZM703.6 434.8L703.6 434.8Q702.3 434.8 701.5 434.0Q700.6 433.2 700.6 432.1L700.6 432.1Q700.6 430.9 701.5 430.1Q702.3 429.3 703.6 429.3L703.6 429.3Q704.8 429.3 705.6 430.1Q706.5 430.9 706.5 432.1L706.5 432.1Q706.5 433.2 705.6 434.0Q704.8 434.8 703.6 434.8ZM716.6 457.4L716.6 457.4Q713.5 457.4 711.4 456.1Q709.2 454.9 708.0 452.6Q706.8 450.4 706.8 447.3L706.8 447.3Q706.8 444.2 708.0 442.0Q709.2 439.7 711.3 438.4Q713.5 437.1 716.3 437.1L716.3 437.1Q718.3 437.1 720.0 437.7Q721.6 438.3 722.9 439.6Q724.2 440.8 724.9 442.7Q725.6 444.6 725.6 447.1L725.6 447.1L725.6 448.6L709.0 448.6L709.0 445.2L720.4 445.2Q720.4 444.0 719.9 443.1Q719.4 442.2 718.5 441.7Q717.6 441.2 716.4 441.2L716.4 441.2Q715.2 441.2 714.2 441.7Q713.3 442.3 712.8 443.3Q712.2 444.2 712.2 445.4L712.2 445.4L712.2 448.6Q712.2 450.0 712.7 451.1Q713.3 452.2 714.3 452.7Q715.3 453.3 716.7 453.3L716.7 453.3Q717.6 453.3 718.3 453.1Q719.1 452.8 719.6 452.3Q720.1 451.8 720.4 451.0L720.4 451.0L725.5 451.4Q725.1 453.2 723.9 454.5Q722.7 455.9 720.9 456.6Q719.0 457.4 716.6 457.4ZM742.5 443.0L742.5 443.0L737.5 443.3Q737.4 442.6 736.9 442.1Q736.5 441.6 735.8 441.3Q735.1 441.0 734.2 441.0L734.2 441.0Q732.9 441.0 732.1 441.5Q731.2 442.0 731.2 442.9L731.2 442.9Q731.2 443.6 731.8 444.1Q732.3 444.6 733.7 444.9L733.7 444.9L737.2 445.6Q740.1 446.2 741.5 447.5Q742.9 448.8 742.9 450.9L742.9 450.9Q742.9 452.8 741.8 454.3Q740.7 455.8 738.7 456.6Q736.7 457.4 734.2 457.4L734.2 457.4Q730.3 457.4 728.0 455.8Q725.7 454.1 725.3 451.3L725.3 451.3L730.6 451.0Q730.9 452.2 731.8 452.8Q732.7 453.5 734.2 453.5L734.2 453.5Q735.6 453.5 736.5 452.9Q737.4 452.3 737.4 451.5L737.4 451.5Q737.4 450.7 736.8 450.2Q736.1 449.8 734.9 449.5L734.9 449.5L731.5 448.8Q728.6 448.3 727.2 446.8Q725.8 445.4 725.8 443.2L725.8 443.2Q725.8 441.3 726.8 440.0Q727.8 438.6 729.7 437.8Q731.6 437.1 734.1 437.1L734.1 437.1Q737.8 437.1 740.0 438.7Q742.1 440.3 742.5 443.0ZM746.5 457.3L746.5 457.3Q745.3 457.3 744.4 456.4Q743.5 455.5 743.5 454.3L743.5 454.3Q743.5 453.0 744.4 452.1Q745.3 451.2 746.5 451.2L746.5 451.2Q747.8 451.2 748.7 452.1Q749.6 453.0 749.6 454.3L749.6 454.3Q749.6 455.1 749.2 455.8Q748.7 456.5 748.1 456.9Q747.4 457.3 746.5 457.3ZM759.9 457.4L759.9 457.4Q756.9 457.4 754.8 456.1Q752.6 454.8 751.4 452.5Q750.3 450.2 750.3 447.3L750.3 447.3Q750.3 444.2 751.4 442.0Q752.6 439.7 754.8 438.4Q756.9 437.1 759.9 437.1L759.9 437.1Q762.5 437.1 764.4 438.0Q766.3 439.0 767.5 440.7Q768.6 442.3 768.7 444.6L768.7 444.6L763.6 444.6Q763.4 443.2 762.4 442.3Q761.5 441.4 760.0 441.4L760.0 441.4Q758.7 441.4 757.8 442.0Q756.9 442.7 756.3 444.0Q755.8 445.3 755.8 447.2L755.8 447.2Q755.8 449.1 756.3 450.4Q756.8 451.7 757.8 452.4Q758.7 453.1 760.0 453.1L760.0 453.1Q760.9 453.1 761.7 452.7Q762.4 452.3 762.9 451.6Q763.4 450.8 763.6 449.8L763.6 449.8L768.7 449.8Q768.6 452.1 767.5 453.8Q766.4 455.5 764.5 456.4Q762.6 457.4 759.9 457.4ZM778.1 457.4L778.1 457.4Q775.1 457.4 772.9 456.1Q770.7 454.8 769.6 452.5Q768.4 450.2 768.4 447.3L768.4 447.3Q768.4 444.2 769.6 442.0Q770.8 439.7 772.9 438.4Q775.1 437.1 778.1 437.1L778.1 437.1Q780.6 437.1 782.6 438.0Q784.5 439.0 785.6 440.7Q786.7 442.3 786.9 444.6L786.9 444.6L781.7 444.6Q781.5 443.2 780.6 442.3Q779.6 441.4 778.1 441.4L778.1 441.4Q776.9 441.4 775.9 442.0Q775.0 442.7 774.5 444.0Q774.0 445.3 774.0 447.2L774.0 447.2Q774.0 449.1 774.5 450.4Q775.0 451.7 775.9 452.4Q776.9 453.1 778.1 453.1L778.1 453.1Q779.1 453.1 779.8 452.7Q780.6 452.3 781.1 451.6Q781.6 450.8 781.7 449.8L781.7 449.8L786.9 449.8Q786.7 452.1 785.6 453.8Q784.5 455.5 782.6 456.4Q780.7 457.4 778.1 457.4Z "/></g></svg>