<svg width="800" height="400" viewBox="0 0 800 400" xmlns="http://www.w3.org/2000/svg"><mask id="satori_om-id"><rect x="0" y="0" width="800" height="400" fill="#fff"/></mask><rect x="0" y="0" width="800" height="400" fill="#000"/><mask id="satori_om-id-0"><rect x="0" y="-52" width="800" height="504" fill="#fff"/></mask><defs><pattern id="satori_pattern_id-0-0_0" x="0" y="0" width="1" height="1" patternUnits="objectBoundingBox"><linearGradient id="satori_biid-0-0_0" x1="-5.131697536045168e-16" y1="5.131697536045178e-16" x2="1.0000000000000004" y2="0.9999999999999993" spreadMethod="pad"><stop offset="0%" stop-color="#FF0000"/><stop offset="100%" stop-color="#CC0000"/></linearGradient><rect x="0" y="0" width="180" height="180" fill="url(#satori_biid-0-0_0)"/></pattern></defs><mask id="satori_om-id-0-0"><rect x="310" y="-52" width="180" height="180" fill="#fff"/></mask><path x="310" y="-52" width="180" height="180" fill="url(#satori_pattern_id-0-0_0)" d="M350,-52 h100 a40,40 0 0 1 40,40 v100 a40,40 0 0 1 -40,40 h-100 a40,40 0 0 1 -40,-40 v-100 a40,40 0 0 1 40,-40"/><defs><clipPath id="satori_bc-id-0-0-0"><rect x="375" y="3" width="60" height="70"/></clipPath></defs><mask id="satori_om-id-0-0-0"><rect x="435" y="38" width="0" height="0" fill="#fff"/><path width="60" height="70" fill="none" stroke="#000" stroke-width="70" d="M375,3 A0,0 0 0 1 375,3 h60 A0,0 0 0 1 435,3"/><path width="60" height="70" fill="none" stroke="#000" stroke-width="70" d="M435,73 A0,0 0 0 1 435,73 h-60 A0,0 0 0 1 375,73"/><path width="60" height="70" fill="none" stroke="#000" stroke-width="120" d="M375,73 A0,0 0 0 1 375,73 v-70 A0,0 0 0 1 375,3"/></mask><path width="60" height="70" clip-path="url(#satori_bc-id-0-0-0)" fill="none" stroke="transparent" stroke-width="70" d="M375,3 A0,0 0 0 1 375,3 h60 A0,0 0 0 1 435,3"/><path width="60" height="70" clip-path="url(#satori_bc-id-0-0-0)" fill="none" stroke="transparent" stroke-width="70" d="M435,73 A0,0 0 0 1 435,73 h-60 A0,0 0 0 1 375,73"/><path width="60" height="70" clip-path="url(#satori_bc-id-0-0-0)" fill="none" stroke="white" stroke-width="120" d="M375,73 A0,0 0 0 1 375,73 v-70 A0,0 0 0 1 375,3"/><mask id="satori_om-id-0-1"><rect x="0" y="178" width="800" height="206" fill="#fff"/></mask><g  ><path fill="white" d="M24.3 238.1L1.8 198.2L16.4 198.2L30.5 224.8L31.1 224.8L45.2 198.2L59.8 198.2L37.3 238.1L37.3 260L24.3 260L24.3 238.1ZM75.0 260.9L75.0 260.9Q68.0 260.9 62.9 257.9Q57.8 254.9 55.0 249.5Q52.2 244.1 52.2 237.0L52.2 237.0Q52.2 229.8 55.0 224.4Q57.8 219.0 62.9 216.0Q68.0 213.0 75.0 213.0L75.0 213.0Q82.1 213.0 87.2 216.0Q92.3 219.0 95.1 224.4Q97.8 229.8 97.8 237.0L97.8 237.0Q97.8 244.1 95.1 249.5Q92.3 254.9 87.2 257.9Q82.1 260.9 75.0 260.9ZM75.1 250.9L75.1 250.9Q78.3 250.9 80.4 249.1Q82.6 247.3 83.7 244.1Q84.8 241.0 84.8 236.9L84.8 236.9Q84.8 232.9 83.7 229.7Q82.6 226.5 80.4 224.7Q78.3 222.8 75.1 222.8L75.1 222.8Q71.9 222.8 69.7 224.7Q67.5 226.5 66.4 229.7Q65.3 232.9 65.3 236.9L65.3 236.9Q65.3 241.0 66.4 244.1Q67.5 247.3 69.7 249.1Q71.9 250.9 75.1 250.9ZM133.0 240.3L133.0 240.3L133.0 213.6L145.8 213.6L145.8 260L133.5 260L133.5 251.6L133.0 251.6Q131.4 255.7 127.8 258.1Q124.2 260.6 118.9 260.6L118.9 260.6Q114.3 260.6 110.8 258.5Q107.2 256.4 105.2 252.5Q103.3 248.6 103.2 243.2L103.2 243.2L103.2 213.6L116.1 213.6L116.1 240.9Q116.1 245.0 118.3 247.4Q120.5 249.7 124.1 249.7L124.1 249.7Q126.5 249.7 128.5 248.7Q130.5 247.6 131.7 245.5Q133.0 243.4 133.0 240.3ZM165.6 209.0L146.6 209.0L146.6 198.2L197.4 198.2L197.4 209.0L178.5 209.0L178.5 260L165.6 260L165.6 209.0ZM226.0 240.3L226.0 240.3L226.0 213.6L238.9 213.6L238.9 260L226.5 260L226.5 251.6L226.0 251.6Q224.5 255.7 220.8 258.1Q217.2 260.6 212.0 260.6L212.0 260.6Q207.3 260.6 203.8 258.5Q200.3 256.4 198.3 252.5Q196.3 248.6 196.3 243.2L196.3 243.2L196.3 213.6L209.1 213.6L209.1 240.9Q209.2 245.0 211.3 247.4Q213.5 249.7 217.2 249.7L217.2 249.7Q219.5 249.7 221.5 248.7Q223.5 247.6 224.8 245.5Q226.0 243.4 226.0 240.3ZM259.0 260L246.4 260L246.4 198.2L259.2 198.2L259.2 221.4L259.6 221.4Q260.5 219.6 262.1 217.6Q263.7 215.7 266.3 214.3Q268.9 213.0 272.8 213.0L272.8 213.0Q277.9 213.0 282.2 215.7Q286.5 218.3 289.0 223.6Q291.6 228.9 291.6 236.9L291.6 236.9Q291.6 244.6 289.1 250.0Q286.6 255.3 282.3 258.0Q278.1 260.8 272.8 260.8L272.8 260.8Q269.0 260.8 266.4 259.5Q263.8 258.3 262.2 256.4Q260.5 254.5 259.6 252.6L259.6 252.6L259.0 252.6L259.0 260ZM259.0 236.8L259.0 236.8Q259.0 241.0 260.1 244.0Q261.3 247.1 263.4 248.8Q265.6 250.5 268.7 250.5L268.7 250.5Q271.8 250.5 274.0 248.8Q276.2 247.1 277.3 244.0Q278.5 240.9 278.5 236.8L278.5 236.8Q278.5 232.8 277.3 229.8Q276.2 226.7 274.0 225.0Q271.9 223.3 268.7 223.3L268.7 223.3Q265.6 223.3 263.4 224.9Q261.3 226.6 260.1 229.6Q259.0 232.7 259.0 236.8ZM318.3 260.9L318.3 260.9Q311.1 260.9 306.0 258.0Q300.8 255.1 298.0 249.7Q295.3 244.4 295.3 237.0L295.3 237.0Q295.3 229.9 298.0 224.5Q300.8 219.1 305.9 216.1Q310.9 213.0 317.7 213.0L317.7 213.0Q322.3 213.0 326.3 214.5Q330.3 216.0 333.2 218.9Q336.2 221.8 337.9 226.2Q339.5 230.7 339.5 236.6L339.5 236.6L339.5 240.1L300.4 240.1L300.4 232.1L327.4 232.1Q327.4 229.4 326.2 227.2Q325.0 225.1 322.9 223.9Q320.8 222.6 318.0 222.6L318.0 222.6Q315.0 222.6 312.8 224.0Q310.5 225.3 309.3 227.6Q308.0 229.8 308.0 232.6L308.0 232.6L308.0 240.1Q308.0 243.6 309.2 246.1Q310.5 248.6 312.9 249.9Q315.2 251.3 318.5 251.3L318.5 251.3Q320.6 251.3 322.4 250.7Q324.2 250.1 325.4 248.9Q326.7 247.7 327.4 245.9L327.4 245.9L339.3 246.7Q338.4 251.0 335.6 254.2Q332.8 257.4 328.4 259.1Q324.0 260.9 318.3 260.9Z M51.4 319.0L38.9 319.0Q38.5 315.3 35.8 313.3Q33.1 311.3 28.3 311.3L28.3 311.3Q25.1 311.3 22.9 312.2Q20.7 313.0 19.6 314.6Q18.4 316.2 18.4 318.2L18.4 318.2Q18.4 319.8 19.1 321.1Q19.9 322.3 21.3 323.2Q22.6 324.1 24.4 324.7Q26.2 325.4 28.2 325.8L28.2 325.8L33.7 327.2Q37.8 328.1 41.2 329.6Q44.6 331.1 47.0 333.3Q49.5 335.5 50.9 338.5Q52.2 341.5 52.3 345.3L52.3 345.3Q52.2 351.0 49.4 355.2Q46.5 359.3 41.2 361.6Q35.8 363.9 28.3 363.9L28.3 363.9Q20.8 363.9 15.3 361.6Q9.7 359.3 6.6 354.8Q3.5 350.3 3.4 343.6L3.4 343.6L16.0 343.6Q16.2 346.7 17.8 348.8Q19.4 350.8 22.1 351.9Q24.8 352.9 28.1 352.9L28.1 352.9Q31.5 352.9 33.9 352.0Q36.4 351.0 37.7 349.3Q39.1 347.5 39.1 345.3L39.1 345.3Q39.1 343.2 37.9 341.8Q36.6 340.4 34.3 339.4Q32.0 338.4 28.6 337.6L28.6 337.6L21.9 335.9Q14.0 334.0 9.5 329.9Q5.0 325.9 5.0 319.1L5.0 319.1Q5.0 313.4 8.0 309.2Q11.0 305.0 16.4 302.7Q21.7 300.3 28.4 300.3L28.4 300.3Q35.3 300.3 40.5 302.7Q45.6 305.0 48.5 309.2Q51.3 313.4 51.4 319.0L51.4 319.0ZM87.5 343.3L87.5 343.3L87.5 316.6L100.4 316.6L100.4 363L88.0 363L88.0 354.6L87.6 354.6Q86.0 358.7 82.3 361.1Q78.7 363.6 73.5 363.6L73.5 363.6Q68.8 363.6 65.3 361.5Q61.8 359.4 59.8 355.5Q57.8 351.6 57.8 346.2L57.8 346.2L57.8 316.6L70.7 316.6L70.7 343.9Q70.7 348.0 72.9 350.4Q75.0 352.7 78.7 352.7L78.7 352.7Q81.0 352.7 83.0 351.7Q85.0 350.6 86.3 348.5Q87.6 346.4 87.5 343.3ZM120.5 363L107.6 363L107.6 316.6L119.9 316.6L119.9 324.8L120.4 324.8Q121.9 320.7 125.3 318.4Q128.7 316.0 133.4 316.0L133.4 316.0Q138.1 316.0 141.5 318.4Q144.8 320.8 145.9 324.8L145.9 324.8L146.4 324.8Q147.9 320.8 151.6 318.4Q155.3 316.0 160.4 316.0L160.4 316.0Q166.9 316.0 171.0 320.2Q175.0 324.3 175.0 331.8L175.0 331.8L175.0 363L162.2 363L162.2 334.4Q162.2 330.5 160.1 328.6Q158.1 326.6 155.0 326.6L155.0 326.6Q151.5 326.6 149.5 328.8Q147.6 331.1 147.6 334.7L147.6 334.7L147.6 363L135.1 363L135.1 334.1Q135.1 330.7 133.2 328.6Q131.2 326.6 128.1 326.6L128.1 326.6Q125.9 326.6 124.2 327.7Q122.5 328.8 121.5 330.7Q120.5 332.6 120.5 335.2L120.5 335.2L120.5 363ZM195.0 363L182.2 363L182.2 316.6L194.4 316.6L194.4 324.8L195.0 324.8Q196.4 320.7 199.8 318.4Q203.2 316.0 207.9 316.0L207.9 316.0Q212.6 316.0 216.0 318.4Q219.3 320.8 220.5 324.8L220.5 324.8L220.9 324.8Q222.4 320.8 226.1 318.4Q229.8 316.0 234.9 316.0L234.9 316.0Q241.4 316.0 245.5 320.2Q249.5 324.3 249.5 331.8L249.5 331.8L249.5 363L236.7 363L236.7 334.4Q236.7 330.5 234.7 328.6Q232.6 326.6 229.5 326.6L229.5 326.6Q226.0 326.6 224.1 328.8Q222.1 331.1 222.1 334.7L222.1 334.7L222.1 363L209.6 363L209.6 334.1Q209.6 330.7 207.7 328.6Q205.7 326.6 202.6 326.6L202.6 326.6Q200.4 326.6 198.7 327.7Q197.0 328.8 196.0 330.7Q195.0 332.6 195.0 335.2L195.0 335.2L195.0 363ZM269.9 363.9L269.9 363.9Q265.5 363.9 262.0 362.3Q258.5 360.8 256.5 357.7Q254.5 354.6 254.5 350.1L254.5 350.1Q254.5 346.2 255.9 343.6Q257.3 340.9 259.8 339.3Q262.2 337.7 265.4 336.9Q268.5 336.1 271.9 335.8L271.9 335.8Q276.0 335.4 278.4 335.0Q280.9 334.6 282.0 333.8Q283.1 333.1 283.1 331.6L283.1 331.6L283.1 331.4Q283.1 328.6 281.3 327.0Q279.6 325.4 276.3 325.4L276.3 325.4Q272.8 325.4 270.7 326.9Q268.7 328.5 268.0 330.8L268.0 330.8L256.1 329.8Q257.0 325.6 259.7 322.5Q262.3 319.4 266.6 317.7Q270.8 316.0 276.3 316.0L276.3 316.0Q280.2 316.0 283.7 316.9Q287.3 317.8 290.0 319.7Q292.8 321.6 294.4 324.6Q296.0 327.6 296.0 331.7L296.0 331.7L296.0 363L283.8 363L283.8 356.6L283.4 356.6Q282.3 358.7 280.5 360.4Q278.6 362.0 276.0 363.0Q273.3 363.9 269.9 363.9ZM273.6 355.0L273.6 355.0Q276.4 355.0 278.6 353.9Q280.8 352.7 282.0 350.8Q283.2 348.9 283.2 346.4L283.2 346.4L283.2 341.5Q282.6 341.9 281.6 342.2Q280.5 342.5 279.3 342.8Q278.0 343.0 276.7 343.2Q275.4 343.4 274.3 343.6L274.3 343.6Q272.0 343.9 270.3 344.6Q268.7 345.4 267.7 346.6Q266.8 347.8 266.8 349.6L266.8 349.6Q266.8 352.3 268.7 353.6Q270.6 355.0 273.6 355.0ZM315.9 363L303.0 363L303.0 316.6L315.5 316.6L315.5 324.7L315.9 324.7Q317.2 320.4 320.2 318.2Q323.2 316.0 327.1 316.0L327.1 316.0Q328.0 316.0 329.2 316.1Q330.3 316.2 331.1 316.4L331.1 316.4L331.1 327.8Q330.2 327.6 328.6 327.4Q327.0 327.1 325.7 327.1L325.7 327.1Q322.9 327.1 320.6 328.4Q318.4 329.6 317.1 331.8Q315.9 333.9 315.9 336.8L315.9 336.8L315.9 363ZM347.6 363L334.7 363L334.7 316.6L347.6 316.6L347.6 363ZM341.2 310.7L341.2 310.7Q338.3 310.7 336.3 308.7Q334.3 306.8 334.3 304.1L334.3 304.1Q334.3 301.5 336.3 299.6Q338.3 297.7 341.2 297.7L341.2 297.7Q344.1 297.7 346.1 299.6Q348.1 301.5 348.1 304.1L348.1 304.1Q348.1 306.8 346.1 308.7Q344.1 310.7 341.2 310.7ZM376.0 363.9L376.0 363.9Q368.8 363.9 363.7 361.0Q358.5 358.1 355.8 352.7Q353.0 347.4 353.0 340.0L353.0 340.0Q353.0 332.9 355.8 327.5Q358.5 322.1 363.6 319.1Q368.7 316.0 375.5 316.0L375.5 316.0Q380.1 316.0 384.0 317.5Q388.0 319.0 391.0 321.9Q393.9 324.8 395.6 329.2Q397.3 333.7 397.3 339.6L397.3 339.6L397.3 343.1L358.1 343.1L358.1 335.1L385.2 335.1Q385.2 332.4 384.0 330.2Q382.8 328.1 380.6 326.9Q378.5 325.6 375.7 325.6L375.7 325.6Q372.8 325.6 370.5 327.0Q368.3 328.3 367.0 330.6Q365.7 332.8 365.7 335.6L365.7 335.6L365.7 343.1Q365.7 346.6 367.0 349.1Q368.3 351.6 370.6 352.9Q373.0 354.3 376.2 354.3L376.2 354.3Q378.3 354.3 380.1 353.7Q381.9 353.1 383.2 351.9Q384.4 350.7 385.1 348.9L385.1 348.9L397.0 349.7Q396.1 354.0 393.3 357.2Q390.5 360.4 386.1 362.1Q381.7 363.9 376.0 363.9ZM441.2 329.9L441.2 329.9L429.5 330.6Q429.2 329.1 428.2 327.8Q427.2 326.6 425.6 325.9Q423.9 325.1 421.7 325.1L421.7 325.1Q418.7 325.1 416.7 326.4Q414.6 327.7 414.6 329.7L414.6 329.7Q414.6 331.4 415.9 332.5Q417.3 333.7 420.5 334.4L420.5 334.4L428.9 336.1Q435.7 337.5 439.0 340.5Q442.3 343.6 442.3 348.6L442.3 348.6Q442.3 353.2 439.6 356.6Q436.9 360.1 432.3 362.0Q427.7 363.9 421.6 363.9L421.6 363.9Q412.4 363.9 407.0 360.1Q401.5 356.2 400.6 349.6L400.6 349.6L413.3 348.9Q413.8 351.7 416.0 353.2Q418.2 354.6 421.7 354.6L421.7 354.6Q425.1 354.6 427.1 353.3Q429.2 352.0 429.2 349.9L429.2 349.9Q429.2 348.2 427.7 347.0Q426.3 345.9 423.3 345.3L423.3 345.3L415.2 343.7Q408.5 342.4 405.2 339.0Q401.8 335.7 401.8 330.5L401.8 330.5Q401.8 326.0 404.3 322.8Q406.7 319.5 411.1 317.8Q415.5 316.0 421.5 316.0L421.5 316.0Q430.3 316.0 435.3 319.7Q440.4 323.5 441.2 329.9Z "/></g><mask id="satori_om-id-0-2"><rect x="166" y="404" width="468" height="48" fill="#fff"/></mask><g  ><path fill="#888" d="M177.1 417.0L167.9 417.0L167.9 413.9L189.8 413.9L189.8 417.0L180.6 417.0L180.6 443L177.1 443L177.1 417.0ZM195.8 443L192.5 443L192.5 421.2L195.7 421.2L195.7 424.5L195.9 424.5Q196.5 422.9 198.1 421.8Q199.7 420.8 201.6 420.8L201.6 420.8Q202.0 420.8 202.5 420.9Q203.1 420.9 203.4 420.9L203.4 420.9L203.4 424.3Q203.2 424.3 202.6 424.2Q202.0 424.1 201.3 424.1L201.3 424.1Q199.8 424.1 198.5 424.7Q197.3 425.4 196.5 426.6Q195.8 427.7 195.8 429.2L195.8 429.2L195.8 443ZM213.8 443.5L213.8 443.5Q211.7 443.5 210.0 442.7Q208.3 441.9 207.3 440.4Q206.3 438.9 206.3 436.8L206.3 436.8Q206.3 434.9 207.1 433.8Q207.8 432.6 209.1 431.9Q210.3 431.3 211.8 430.9Q213.3 430.6 214.8 430.4L214.8 430.4Q216.8 430.1 218.0 430.0Q219.3 429.9 219.9 429.5Q220.4 429.2 220.4 428.4L220.4 428.4L220.4 428.3Q220.4 426.2 219.3 425.0Q218.1 423.9 215.8 423.9L215.8 423.9Q213.4 423.9 212.1 424.9Q210.7 426.0 210.1 427.1L210.1 427.1L207.0 426.0Q207.8 424.0 209.2 422.9Q210.7 421.8 212.4 421.3Q214.1 420.9 215.7 420.9L215.7 420.9Q216.8 420.9 218.1 421.1Q219.5 421.4 220.8 422.2Q222.1 422.9 222.9 424.5Q223.8 426.0 223.8 428.6L223.8 428.6L223.8 443L220.4 443L220.4 440.0L220.3 440.0Q219.9 440.8 219.1 441.6Q218.3 442.4 217.0 442.9Q215.7 443.5 213.8 443.5ZM214.3 440.5L214.3 440.5Q216.3 440.5 217.7 439.7Q219.0 438.9 219.7 437.7Q220.4 436.5 220.4 435.1L220.4 435.1L220.4 432.0Q220.2 432.3 219.5 432.5Q218.8 432.7 217.9 432.9Q216.9 433 216.0 433.1Q215.2 433.2 214.6 433.3L214.6 433.3Q213.3 433.5 212.2 433.8Q211.1 434.2 210.4 435.0Q209.7 435.7 209.7 437.0L209.7 437.0Q209.7 438.7 211.0 439.6Q212.3 440.5 214.3 440.5ZM233.3 429.9L233.3 429.9L233.3 443L229.9 443L229.9 421.2L233.2 421.2L233.2 424.6L233.4 424.6Q234.2 422.9 235.8 421.9Q237.3 420.9 239.8 420.9L239.8 420.9Q242.0 420.9 243.7 421.8Q245.3 422.7 246.3 424.5Q247.2 426.4 247.2 429.1L247.2 429.1L247.2 443L243.8 443L243.8 429.4Q243.8 426.8 242.5 425.4Q241.2 423.9 238.8 423.9L238.8 423.9Q237.2 423.9 236.0 424.6Q234.7 425.3 234.0 426.6Q233.3 428.0 233.3 429.9ZM268.8 426.1L268.8 426.1L265.8 426.9Q265.5 426.2 264.9 425.5Q264.4 424.7 263.5 424.3Q262.5 423.8 261.1 423.8L261.1 423.8Q259.1 423.8 257.7 424.7Q256.4 425.6 256.4 427.0L256.4 427.0Q256.4 428.3 257.3 429.0Q258.2 429.7 260.1 430.2L260.1 430.2L263.4 431.0Q266.3 431.7 267.7 433.2Q269.2 434.6 269.2 436.9L269.2 436.9Q269.2 438.8 268.1 440.3Q267.0 441.8 265.1 442.6Q263.2 443.5 260.7 443.5L260.7 443.5Q257.3 443.5 255.1 442.0Q252.9 440.6 252.4 437.8L252.4 437.8L255.5 437.0Q256 438.7 257.3 439.6Q258.5 440.5 260.6 440.5L260.6 440.5Q262.9 440.5 264.3 439.5Q265.7 438.5 265.7 437.1L265.7 437.1Q265.7 436.0 264.9 435.2Q264.1 434.4 262.5 434.0L262.5 434.0L258.8 433.2Q255.8 432.5 254.4 431.0Q253.0 429.5 253.0 427.2L253.0 427.2Q253.0 425.4 254.1 423.9Q255.1 422.5 256.9 421.7Q258.8 420.9 261.1 420.9L261.1 420.9Q264.3 420.9 266.1 422.3Q268.0 423.7 268.8 426.1ZM283.1 443.5L283.1 443.5Q280.0 443.5 277.8 442.0Q275.6 440.6 274.4 438.0Q273.2 435.5 273.2 432.2L273.2 432.2Q273.2 428.9 274.4 426.3Q275.7 423.8 277.9 422.3Q280.1 420.9 283.0 420.9L283.0 420.9Q285.3 420.9 287.2 421.8Q289.0 422.6 290.2 424.1Q291.4 425.7 291.7 427.7L291.7 427.7L288.3 427.7Q287.9 426.2 286.6 425.1Q285.3 423.9 283.1 423.9L283.1 423.9Q281.1 423.9 279.7 424.9Q278.2 425.9 277.4 427.8Q276.6 429.6 276.6 432.1L276.6 432.1Q276.6 434.6 277.4 436.5Q278.2 438.4 279.6 439.4Q281.1 440.4 283.1 440.4L283.1 440.4Q284.4 440.4 285.5 440.0Q286.5 439.5 287.3 438.7Q288.0 437.8 288.3 436.6L288.3 436.6L291.7 436.6Q291.4 438.6 290.3 440.1Q289.2 441.7 287.3 442.6Q285.5 443.5 283.1 443.5ZM299.9 443L296.6 443L296.6 421.2L299.8 421.2L299.8 424.5L300.0 424.5Q300.6 422.9 302.2 421.8Q303.8 420.8 305.7 420.8L305.7 420.8Q306.1 420.8 306.6 420.9Q307.2 420.9 307.5 420.9L307.5 420.9L307.5 424.3Q307.3 424.3 306.7 424.2Q306.1 424.1 305.4 424.1L305.4 424.1Q303.8 424.1 302.6 424.7Q301.4 425.4 300.6 426.6Q299.9 427.7 299.9 429.2L299.9 429.2L299.9 443ZM314.8 443L311.5 443L311.5 421.2L314.8 421.2L314.8 443ZM313.2 417.5L313.2 417.5Q312.2 417.5 311.5 416.9Q310.8 416.2 310.8 415.3L310.8 415.3Q310.8 414.3 311.5 413.7Q312.2 413 313.2 413L313.2 413Q314.1 413 314.8 413.7Q315.5 414.3 315.5 415.3L315.5 415.3Q315.5 416.2 314.8 416.9Q314.1 417.5 313.2 417.5ZM324.3 451.2L320.9 451.2L320.9 421.2L324.2 421.2L324.2 424.6L324.6 424.6Q324.9 424.1 325.6 423.2Q326.3 422.3 327.5 421.6Q328.8 420.9 330.9 420.9L330.9 420.9Q333.6 420.9 335.7 422.3Q337.8 423.7 339.0 426.2Q340.2 428.7 340.2 432.1L340.2 432.1Q340.2 435.6 339.0 438.1Q337.8 440.7 335.8 442.1Q333.7 443.5 330.9 443.5L330.9 443.5Q328.8 443.5 327.6 442.8Q326.3 442.0 325.6 441.1Q324.9 440.2 324.6 439.6L324.6 439.6L324.3 439.6L324.3 451.2ZM324.2 432.1L324.2 432.1Q324.2 434.6 325.0 436.4Q325.7 438.3 327.1 439.4Q328.5 440.4 330.5 440.4L330.5 440.4Q332.6 440.4 334.0 439.3Q335.4 438.2 336.1 436.3Q336.9 434.4 336.9 432.1L336.9 432.1Q336.9 429.8 336.1 427.9Q335.4 426.1 334.0 425.0Q332.6 423.9 330.5 423.9L330.5 423.9Q328.4 423.9 327.1 424.9Q325.7 426.0 324.9 427.8Q324.2 429.6 324.2 432.1ZM343.5 421.2L354.8 421.2L354.8 424.0L343.5 424.0L343.5 421.2ZM346.8 437.7L346.8 416.0L350.1 416.0L350.1 436.8Q350.1 438.2 350.6 438.9Q351.0 439.6 351.6 439.8Q352.3 440.0 353.0 440.0L353.0 440.0Q353.6 440.0 354.0 440.0Q354.3 439.9 354.5 439.9L354.5 439.9L355.2 442.9Q354.9 443.0 354.3 443.1Q353.6 443.3 352.7 443.3L352.7 443.3Q351.3 443.3 349.9 442.7Q348.6 442.1 347.7 440.8Q346.8 439.6 346.8 437.7L346.8 437.7ZM374.9 426.1L374.9 426.1L371.9 426.9Q371.6 426.2 371.1 425.5Q370.5 424.7 369.6 424.3Q368.7 423.8 367.2 423.8L367.2 423.8Q365.2 423.8 363.9 424.7Q362.5 425.6 362.5 427.0L362.5 427.0Q362.5 428.3 363.4 429.0Q364.4 429.7 366.3 430.2L366.3 430.2L369.5 431.0Q372.4 431.7 373.9 433.2Q375.3 434.6 375.3 436.9L375.3 436.9Q375.3 438.8 374.2 440.3Q373.2 441.8 371.3 442.6Q369.3 443.5 366.8 443.5L366.8 443.5Q363.5 443.5 361.3 442.0Q359.1 440.6 358.5 437.8L358.5 437.8L361.7 437.0Q362.1 438.7 363.4 439.6Q364.7 440.5 366.7 440.5L366.7 440.5Q369.1 440.5 370.5 439.5Q371.9 438.5 371.9 437.1L371.9 437.1Q371.9 436.0 371.1 435.2Q370.3 434.4 368.6 434.0L368.6 434.0L365.0 433.2Q362.0 432.5 360.6 431.0Q359.2 429.5 359.2 427.2L359.2 427.2Q359.2 425.4 360.2 423.9Q361.3 422.5 363.1 421.7Q364.9 420.9 367.2 420.9L367.2 420.9Q370.4 420.9 372.3 422.3Q374.1 423.7 374.9 426.1Z M406.0 441.0L402.8 441.0L402.8 422.3L406.0 422.3L406.0 441.0ZM413.8 433.2L395.0 433.2L395.0 430.0L413.8 430.0L413.8 433.2Z M442.3 418.5L433.6 443L429.9 443L440.5 413.9L444.2 413.9L454.9 443L451.2 443L442.5 418.5L442.3 418.5ZM434.9 434.8L434.9 431.6L449.8 431.6L449.8 434.8L434.9 434.8ZM459.4 413.9L462.9 413.9L462.9 443L459.4 443L459.4 413.9Z M491.1 418.5L482.4 443L478.7 443L489.4 413.9L493.0 413.9L503.7 443L500.0 443L491.3 418.5L491.1 418.5ZM483.8 434.8L483.8 431.6L498.7 431.6L498.7 434.8L483.8 434.8ZM511.2 429.9L511.2 429.9L511.2 443L507.8 443L507.8 421.2L511.1 421.2L511.1 424.6L511.3 424.6Q512.1 422.9 513.7 421.9Q515.2 420.9 517.7 420.9L517.7 420.9Q519.9 420.9 521.6 421.8Q523.2 422.7 524.2 424.5Q525.1 426.4 525.1 429.1L525.1 429.1L525.1 443L521.7 443L521.7 429.4Q521.7 426.8 520.4 425.4Q519.1 423.9 516.7 423.9L516.7 423.9Q515.1 423.9 513.9 424.6Q512.6 425.3 511.9 426.6Q511.2 428.0 511.2 429.9ZM537.6 443.5L537.6 443.5Q535.6 443.5 533.9 442.7Q532.2 441.9 531.2 440.4Q530.2 438.9 530.2 436.8L530.2 436.8Q530.2 434.9 530.9 433.8Q531.7 432.6 532.9 431.9Q534.2 431.3 535.7 430.9Q537.2 430.6 538.7 430.4L538.7 430.4Q540.7 430.1 541.9 430.0Q543.1 429.9 543.7 429.5Q544.3 429.2 544.3 428.4L544.3 428.4L544.3 428.3Q544.3 426.2 543.2 425.0Q542.0 423.9 539.7 423.9L539.7 423.9Q537.3 423.9 535.9 424.9Q534.6 426.0 534.0 427.1L534.0 427.1L530.8 426.0Q531.7 424.0 533.1 422.9Q534.5 421.8 536.2 421.3Q537.9 420.9 539.6 420.9L539.6 420.9Q540.6 420.9 542.0 421.1Q543.4 421.4 544.7 422.2Q545.9 422.9 546.8 424.5Q547.6 426.0 547.6 428.6L547.6 428.6L547.6 443L544.3 443L544.3 440.0L544.1 440.0Q543.8 440.8 543.0 441.6Q542.2 442.4 540.9 442.9Q539.6 443.5 537.6 443.5ZM538.2 440.5L538.2 440.5Q540.1 440.5 541.5 439.7Q542.9 438.9 543.6 437.7Q544.3 436.5 544.3 435.1L544.3 435.1L544.3 432.0Q544.1 432.3 543.4 432.5Q542.6 432.7 541.7 432.9Q540.8 433 539.9 433.1Q539.0 433.2 538.5 433.3L538.5 433.3Q537.2 433.5 536.1 433.8Q534.9 434.2 534.2 435.0Q533.6 435.7 533.6 437.0L533.6 437.0Q533.6 438.7 534.9 439.6Q536.2 440.5 538.2 440.5ZM553.8 413.9L557.1 413.9L557.1 443L553.8 443L553.8 413.9ZM565.4 451.2L565.4 451.2Q564.6 451.2 563.9 451.0Q563.2 450.9 563.0 450.8L563.0 450.8L563.8 447.8Q565.1 448.1 566.0 448.1Q566.9 448.0 567.7 447.2Q568.4 446.5 569.0 444.8L569.0 444.8L569.6 443.1L561.6 421.2L565.2 421.2L571.2 438.6L571.5 438.6L577.5 421.2L581.1 421.2L571.9 446.2Q571.2 447.9 570.3 449.0Q569.4 450.1 568.2 450.6Q567.0 451.2 565.4 451.2ZM601.0 426.1L601.0 426.1L598.0 426.9Q597.7 426.2 597.2 425.5Q596.6 424.7 595.7 424.3Q594.7 423.8 593.3 423.8L593.3 423.8Q591.3 423.8 589.9 424.7Q588.6 425.6 588.6 427.0L588.6 427.0Q588.6 428.3 589.5 429.0Q590.4 429.7 592.4 430.2L592.4 430.2L595.6 431.0Q598.5 431.7 600.0 433.2Q601.4 434.6 601.4 436.9L601.4 436.9Q601.4 438.8 600.3 440.3Q599.3 441.8 597.3 442.6Q595.4 443.5 592.9 443.5L592.9 443.5Q589.5 443.5 587.3 442.0Q585.2 440.6 584.6 437.8L584.6 437.8L587.8 437.0Q588.2 438.7 589.5 439.6Q590.8 440.5 592.8 440.5L592.8 440.5Q595.2 440.5 596.5 439.5Q597.9 438.5 597.9 437.1L597.9 437.1Q597.9 436.0 597.1 435.2Q596.3 434.4 594.7 434.0L594.7 434.0L591.1 433.2Q588.1 432.5 586.7 431.0Q585.3 429.5 585.3 427.2L585.3 427.2Q585.3 425.4 586.3 423.9Q587.3 422.5 589.2 421.7Q591.0 420.9 593.3 420.9L593.3 420.9Q596.5 420.9 598.4 422.3Q600.2 423.7 601.0 426.1ZM609.8 443L606.5 443L606.5 421.2L609.8 421.2L609.8 443ZM608.2 417.5L608.2 417.5Q607.2 417.5 606.5 416.9Q605.8 416.2 605.8 415.3L605.8 415.3Q605.8 414.3 606.5 413.7Q607.2 413 608.2 413L608.2 413Q609.1 413 609.8 413.7Q610.5 414.3 610.5 415.3L610.5 415.3Q610.5 416.2 609.8 416.9Q609.1 417.5 608.2 417.5ZM631.4 426.1L631.4 426.1L628.4 426.9Q628.1 426.2 627.6 425.5Q627.0 424.7 626.1 424.3Q625.1 423.8 623.7 423.8L623.7 423.8Q621.7 423.8 620.3 424.7Q619.0 425.6 619.0 427.0L619.0 427.0Q619.0 428.3 619.9 429.0Q620.8 429.7 622.8 430.2L622.8 430.2L626.0 431.0Q628.9 431.7 630.4 433.2Q631.8 434.6 631.8 436.9L631.8 436.9Q631.8 438.8 630.7 440.3Q629.7 441.8 627.7 442.6Q625.8 443.5 623.3 443.5L623.3 443.5Q619.9 443.5 617.7 442.0Q615.6 440.6 615.0 437.8L615.0 437.8L618.2 437.0Q618.6 438.7 619.9 439.6Q621.2 440.5 623.2 440.5L623.2 440.5Q625.6 440.5 626.9 439.5Q628.3 438.5 628.3 437.1L628.3 437.1Q628.3 436.0 627.5 435.2Q626.7 434.4 625.1 434.0L625.1 434.0L621.5 433.2Q618.5 432.5 617.1 431.0Q615.7 429.5 615.7 427.2L615.7 427.2Q615.7 425.4 616.7 423.9Q617.7 422.5 619.6 421.7Q621.4 420.9 623.7 420.9L623.7 420.9Q626.9 420.9 628.8 422.3Q630.6 423.7 631.4 426.1Z "/></g></svg>